# xmcd CD database file
#
# Track frame offsets:
#	150
#	15127
#	28495
#	40757
#	54442
#	68875
#	83667
#	97257
#	117900
#	134845
#	144505
#	159190
#	171597
#	183635
#	196327
#
# Disc length: 3602 seconds
#
# Revision: 2
# Processed by: cddbd v1.5.2PL0 Copyright (c) Steve Scherf et al.
# Submitted via: CDex 1.70beta2
#
DISCID=d30e100f
DTITLE=Joe Raphael und die Party Singers - Die Fete ( 1000 Takte Super - Stimmung )
DYEAR=1900
DGENRE=
TTITLE0=Polka-Hits: Rosamunde-Schüzenliesel-Anneliese
TTITLE1=Stimmung an Isar und Inn
TTITLE2=Super Hits: La Bostelle-Eviva Espana....
TTITLE3=Stimmung an Rhein und Mosel
TTITLE4=Sauflieder
TTITLE5=Maschlieder-Potpourri
TTITLE6=Schunkel-Walzer-Potpourri
TTITLE7=Super-Schlager
TTITLE8=Kirmeslieder
TTITLE9=Soldaten-Lieder
TTITLE10=Hafen-Party
TTITLE11=Alte Soldaten-Lieder
TTITLE12=Kirmeslieder 2
TTITLE13=Jubel. Trubel, Heiterkeit
TTITLE14=Festzelt-Stimmung
EXTD=
EXTT0=
EXTT1=
EXTT2=
EXTT3=
EXTT4=
EXTT5=
EXTT6=
EXTT7=
EXTT8=
EXTT9=
EXTT10=
EXTT11=
EXTT12=
EXTT13=
EXTT14=
PLAYORDER=
